# xmcd CD database file
#
# Track frame offsets:
#	182
#	13422
#	26510
#	39647
#	52420
#	64002
#	74822
#	85887
#	99140
#	112140
#	130297
#	143275
#	156080
#	167815
#
# Disc length: 2410 seconds
#
# Revision: 2
# Processed by: cddbd v1.5.2PL0 Copyright (c) Steve Scherf et al.
# Submitted via: CDex 1.51
#
DISCID=c709680e
DTITLE=Howlin' Wolf - The Great Howlin' Wolf
DYEAR=1993
DGENRE=Blues
TTITLE0=Moanin' At Midnight
TTITLE1=Baby How Long
TTITLE2=Evil
TTITLE3=I Asked For Water
TTITLE4=Sittin' On Top Of The World
TTITLE5=Wang Dang Doodle
TTITLE6=The Red Rooster
TTITLE7=Just Like I Treat You
TTITLE8=I Ain't Superstitious
TTITLE9=Goin' Down Slow
TTITLE10=Love Me Darlin'
TTITLE11=Killing Floor
TTITLE12=My Country Sugar Mama
TTITLE13=My Mind Is Ramblin'
EXTD=YEAR: 1993
EXTT0=
EXTT1=
EXTT2=
EXTT3=
EXTT4=
EXTT5=
EXTT6=
EXTT7=
EXTT8=
EXTT9=
EXTT10=
EXTT11=
EXTT12=
EXTT13=
PLAYORDER=
